<?xml version="1.0" encoding="UTF-8"?><svg id="Layer_1" xmlns="http://www.w3.org/2000/svg" viewBox="0 0 55.03 49.35"><text transform="translate(-598.02 147.46)" font-family="Bungee-Regular, Bungee" font-size="128.97"><tspan x="0" y="0">Deepen</tspan></text><g><path d="M45.08,22.23c0,4.32,0,8.64,0,12.96,0,.72-.35,1.2-.91,1.57-.33,.22-.7,.3-1.09,.3-4.01,0-8.02,0-12.03,0-.18,0-.18-.09-.18-.21,0-4.94,0-9.88,0-14.81,0-.03,0-.06,0-.09q0-.23-.23-.23c-5,0-10.01,0-15.01,0q-.23,0-.23-.23c0-3.99,0-7.98,0-11.97,0-.64,.21-1.18,.69-1.6,.34-.3,.73-.49,1.19-.49,.05,0,.1,0,.15,0,8.56,0,17.13,0,25.69,0,.69,0,1.23,.29,1.64,.83,.21,.28,.33,.6,.33,.96,0,4.34,0,8.68,0,13.02Z"/><path d="M12.37,25.33h.21c5.01,0,10.03,0,15.04,0q.21,0,.21,.21c0,4.93,0,9.85,0,14.78q0,.21-.22,.21c-4.41,0-8.82-.01-13.23,.01-.86,0-1.71-.66-1.92-1.44-.05-.19-.09-.4-.09-.6,0-4.33,0-8.67,0-13v-.17Z"/></g></svg>