<?xml version="1.0" encoding="UTF-8"?><svg id="Layer_1" xmlns="http://www.w3.org/2000/svg" viewBox="0 0 753.59 388.28"><g><path d="M163.17,96.2c0,16.56-.02,33.12,.02,49.68,0,2.75-1.35,4.61-3.51,6.03-1.26,.83-2.67,1.15-4.18,1.15-15.37,0-30.74,0-46.11,.01-.69,0-.68-.33-.68-.82,0-18.93,0-37.85,0-56.78,0-.12,0-.23,0-.35q0-.89-.88-.89c-19.18,0-38.36,0-57.54,0q-.89,0-.89-.88c0-15.29,0-30.58,0-45.87,0-2.44,.79-4.52,2.63-6.15,1.29-1.15,2.78-1.86,4.55-1.89,.2,0,.39,0,.59,0,32.83,0,65.66,0,98.49,0,2.66,0,4.71,1.09,6.27,3.17,.81,1.08,1.26,2.28,1.25,3.69-.03,16.64-.02,33.28-.02,49.92Z"/><path d="M37.77,108.09h.8c19.22,0,38.43,0,57.65,0q.82,0,.82,.82c0,18.88,0,37.76,0,56.64q0,.8-.84,.8c-16.9,0-33.8-.05-50.69,.04-3.29,.02-6.55-2.53-7.38-5.52-.21-.75-.35-1.54-.35-2.31-.02-16.61-.02-33.22-.02-49.83v-.64Z"/></g><g><path d="M163.17,296.57c0,16.56-.02,33.12,.02,49.68,0,2.75-1.35,4.61-3.51,6.03-1.26,.83-2.67,1.15-4.18,1.15-15.37,0-30.74,0-46.11,.01-.69,0-.68-.33-.68-.82,0-18.93,0-37.85,0-56.78,0-.12,0-.23,0-.35q0-.89-.88-.89c-19.18,0-38.36,0-57.54,0q-.89,0-.89-.88c0-15.29,0-30.58,0-45.87,0-2.44,.79-4.52,2.63-6.15,1.29-1.15,2.78-1.86,4.55-1.89,.2,0,.39,0,.59,0,32.83,0,65.66,0,98.49,0,2.66,0,4.71,1.09,6.27,3.17,.81,1.08,1.26,2.28,1.25,3.69-.03,16.64-.02,33.28-.02,49.92Z" fill="#f2f2f2"/><path d="M37.77,308.46h.8c19.22,0,38.43,0,57.65,0q.82,0,.82,.82c0,18.88,0,37.76,0,56.64q0,.8-.84,.8c-16.9,0-33.8-.05-50.69,.04-3.29,.02-6.55-2.53-7.38-5.52-.21-.75-.35-1.54-.35-2.31-.02-16.61-.02-33.22-.02-49.83v-.64Z" fill="#f2f2f2"/></g><text transform="translate(175.57 147.46)" font-family="Bungee-Regular, Bungee" font-size="128.97"><tspan x="0" y="0">Deepen</tspan></text><text transform="translate(175.57 343.35)" fill="#f2f2f2" font-family="Bungee-Regular, Bungee" font-size="128.97"><tspan x="0" y="0">Deepen</tspan></text></svg>