<?xml version="1.0" encoding="UTF-8"?><svg xmlns="http://www.w3.org/2000/svg" viewBox="0 0 800 800"><g id="Layer_5"><g><path d="M470.18,431.45l-42.83-.36-5.5-2.02c-.48-.41-.77-.67-1.07-.9-13.92-10.52-22.32-25.77-25.12-45.67-.54-3.85-.5-7.82-.77-11.72-.11-1.6,.31-2.12,1.66-2.11,11.97,.06,23.94,.05,35.91,0,.67,0,1.39-.41,2.01-.81,1.69-1.07,3.3-2.34,5.03-3.32,.8-.46,1.1-.96,1.13-2.01,.36-11.57,.73-23.13,1.13-34.69,.46-13.44,.97-26.88,1.43-40.32,.3-8.82,.57-17.64,.86-26.45,.07-2.04,.24-4.09,.19-6.12-.02-.92-.32-2.01-.79-2.71-5.13-7.7-9.03-16.19-10.86-25.99-2.62-14.08-.79-27.46,4.3-40.28,2.41-6.07,5.28-11.77,9.09-16.68,1.57-2.02,1.56-2.16,3.06-.11,5.2,7.12,9.04,15.26,11.66,24.29,1.97,6.78,3.01,13.79,2.91,21.03-.15,10.37-2.48,19.95-6.9,28.71-1.67,3.32-3.7,6.36-5.52,9.56-.27,.48-.48,1.15-.46,1.73,.3,9.84,.65,19.68,.98,29.51,.67,19.57,1.35,39.14,2.02,58.71,.23,6.56,.47,13.12,.65,19.68,.03,1.18,.32,1.72,1.25,2.2,1.62,.84,3.1,2.1,4.69,3.07,.78,.48,1.65,.99,2.48,1,11.84,.07,23.68,.05,35.52,.05,1.73,0,1.72,0,1.73,2.09,.1,16.91-4.28,31.77-13.23,44.55-3.14,4.48-6.66,8.07-13.77,13.77l-2.88,2.34Zm-72.88-59.62c.21,3.18,.23,6.14,.63,9.03,3,21.94,12.5,37.87,28.73,47.48,.86,.51,1.9,.8,2.85,.8,12.06,.05,24.11,.05,36.17,0,.83,0,1.75-.22,2.49-.68,18.23-11.17,28.04-29.32,29.33-54.55,.08-1.53-.23-2.03-1.54-2.03-8.76,.05-17.52-.02-26.28-.03-23.59-.02-47.18-.03-70.77-.04-.43,0-.86,0-1.61,0Zm54.49-8.71c-.04-1.08-.07-1.88-.1-2.68-.32-9.68-.63-19.36-.95-29.03-.27-8.06-.54-16.13-.82-24.19-.41-11.66-.83-23.33-1.23-34.99-.21-6.07-.44-12.15-.57-18.22-.02-.92,.23-2.06,.69-2.74,3.15-4.63,5.88-9.57,8.03-15.02,3.41-8.68,4.7-17.87,4.02-27.43-.58-8.02-2.7-15.52-5.63-22.67-.69-1.68-1.49-3.3-2.43-5.36-1.37,2.58-2.51,4.72-3.65,6.86-2.94,5.55-4.72,11.71-5.9,18.13-1.4,7.67-1.54,15.47-.95,23.26,.28,3.69,.72,7.38,1.38,10.98,.59,3.23,1.63,6.34,2.39,9.53,.4,1.66,.85,3.38,.89,5.08,.15,6.55,.11,13.1,.19,19.65,.16,13.72,.36,27.44,.52,41.16,.12,10.44,.21,20.88,.32,31.32,.05,4.9,.11,9.79,.21,14.69,0,.45,.33,1.19,.6,1.27,.91,.26,1.87,.28,3.02,.41Z"/><path d="M507,217.79c-.32,3.53-.52,7-.96,10.43-1.39,10.67-4.41,20.59-9.51,29.39-7.61,13.11-18.12,20.37-30.83,22.91-3.07,.61-6.21,.71-9.32,1.06-.82,.09-1.18-.27-1.15-1.35,.41-15.78,3.62-30.3,12.42-42.26,6.16-8.37,13.84-13.7,22.48-17.05,5.24-2.03,10.58-3.35,16.1-3.28,.13,0,.25,.05,.78,.17Zm-4.37,14.86c-13.2,2.68-24.19,9.83-33.08,21.67-5.11,6.81-9.23,14.51-11.58,23.88,9.8-.53,18.68-3.41,26.53-10.27,9.83-8.58,15.09-20.82,18.12-35.28Z"/><path d="M464.25,329.49c-2.81-.27-5.49-.54-8.17-.78-.69-.06-.86-.4-.75-1.26,1.66-12.06,4.85-23.3,11.27-32.84,6.73-10,15.4-15.97,25.48-19.04,6.28-1.91,12.63-2.62,19.08-1.9,.39,.04,.77,.15,1.16,.17,.88,.03,1.06,.56,.93,1.58-.78,5.87-2.19,11.5-4.14,16.92-3.74,10.39-8.92,19.4-16.42,26.17-6.34,5.72-13.42,9.09-21.2,10.21-2.45,.35-4.91,.52-7.25,.77Zm43.38-41.33c-13.57,.62-25.44,5.78-35.64,16.27-5.64,5.8-10.23,12.77-13.86,21.23,10.88,1.16,20.88-.39,30.04-7.27,9.36-7.03,15.22-17.55,19.45-30.23Z"/><path d="M381.71,273.75c3.19-.1,6.29-.41,9.39-.26,6.99,.33,13.74,2.11,20.2,5.52,11.63,6.16,19.88,16.53,24.46,31.12,1.69,5.38,2.59,11.13,3.83,16.72,.27,1.2,.06,1.77-1.13,1.93-6.47,.88-12.9,.82-19.27-.93-12.7-3.49-22.32-12.41-29.2-25.97-4.23-8.33-7.1-17.33-8.27-27.12-.02-.16,0-.32,0-1.01Zm5.86,14.36c7.61,26.14,25.97,40.95,49.18,37.37-2.16-5.48-5-10.27-8.24-14.57-11.03-14.63-24.79-22-40.95-22.8Z"/><path d="M439.8,281.58c-12.94-.15-24.81-3.87-34.55-14.76-11.65-13.02-16.28-29.97-17.15-49.36,12.72,.58,24.16,4.83,34.02,14.46,12.82,12.53,17.39,29.8,17.68,49.66Zm-47.15-48.94c1.2,9.21,6.22,23.07,14.21,31.73,8.57,9.3,18.75,13.19,30.32,13.88-3-10.55-7.75-19.24-13.97-26.75-8.51-10.28-18.77-16.21-30.56-18.86Z"/><path d="M397.29,371.83c.76,0,1.18,0,1.61,0,23.59,.01,47.18,.02,70.77,.04,8.76,0,17.52,.08,26.28,.03,1.3,0,1.62,.5,1.54,2.03-1.29,25.23-11.1,43.38-29.33,54.55-.74,.46-1.66,.68-2.49,.68-12.06,.04-24.11,.05-36.17,0-.96,0-1.99-.29-2.85-.8-16.23-9.61-25.73-25.54-28.73-47.48-.39-2.89-.42-5.85-.63-9.03Zm85.19,35.31c.29-.33,.93-.82,1.29-1.52,1.53-2.99,3.18-5.93,4.4-9.12,1.33-3.48,2.26-7.2,3.26-10.86,.17-.61-.09-1.59-.42-2.16-.21-.35-1.07-.53-1.37-.28-.48,.4-.9,1.16-1.06,1.86-1.51,6.76-3.93,12.97-7.28,18.62-.2,.34-.43,.7-.54,1.09-.35,1.2,.3,2.35,1.72,2.37Zm-7.94,9.63c-.03-1.96-1.19-2.64-2.35-1.75-1.87,1.45-3.71,2.96-5.59,4.39-.86,.66-1.31,1.52-.8,2.67,.53,1.17,1.42,1.12,2.25,.49,1.88-1.43,3.76-2.86,5.59-4.38,.45-.38,.71-1.11,.9-1.41Z" fill="#fff"/><path d="M451.79,363.12c-1.15-.13-2.11-.15-3.02-.41-.27-.08-.59-.82-.6-1.27-.1-4.89-.16-9.79-.21-14.69-.11-10.44-.19-20.88-.32-31.32-.16-13.72-.36-27.44-.52-41.16-.08-6.55-.04-13.1-.19-19.65-.04-1.7-.49-3.42-.89-5.08-.76-3.19-1.8-6.29-2.39-9.53-.66-3.61-1.1-7.3-1.38-10.98-.59-7.8-.45-15.59,.95-23.26,1.17-6.42,2.96-12.57,5.9-18.13,1.13-2.14,2.28-4.28,3.65-6.86,.94,2.06,1.74,3.67,2.43,5.36,2.93,7.15,5.06,14.66,5.63,22.67,.69,9.56-.6,18.75-4.02,27.43-2.14,5.45-4.88,10.4-8.03,15.02-.46,.68-.71,1.82-.69,2.74,.13,6.08,.36,12.15,.57,18.22,.41,11.66,.83,23.33,1.23,34.99,.28,8.06,.55,16.13,.82,24.19,.32,9.68,.63,19.35,.95,29.03,.03,.8,.06,1.59,.1,2.68Z" fill="#fff"/><path d="M502.62,232.65c-3.03,14.46-8.3,26.7-18.12,35.28-7.86,6.86-16.73,9.75-26.53,10.27,2.35-9.37,6.47-17.07,11.58-23.88,8.88-11.84,19.88-18.99,33.08-21.67Z" fill="#fff"/><path d="M507.63,288.16c-4.23,12.69-10.09,23.2-19.45,30.23-9.16,6.88-19.17,8.43-30.04,7.27,3.63-8.46,8.22-15.43,13.86-21.23,10.2-10.49,22.07-15.65,35.64-16.27Z" fill="#fff"/><path d="M387.57,288.11c16.15,.8,29.92,8.18,40.95,22.8,3.24,4.3,6.08,9.09,8.24,14.57-23.21,3.58-41.57-11.23-49.18-37.37Z" fill="#fff"/><path d="M392.65,232.63c11.79,2.65,22.05,8.58,30.56,18.86,6.22,7.51,10.97,16.2,13.97,26.75-11.57-.69-21.75-4.59-30.32-13.88-7.98-8.66-13.01-22.53-14.21-31.73Z" fill="#fff"/><path d="M482.48,407.14c-1.41-.02-2.07-1.17-1.72-2.37,.11-.39,.34-.75,.54-1.09,3.34-5.66,5.76-11.86,7.28-18.62,.16-.71,.58-1.46,1.06-1.86,.3-.25,1.16-.07,1.37,.28,.33,.57,.59,1.54,.42,2.16-1,3.66-1.93,7.38-3.26,10.86-1.21,3.19-2.87,6.13-4.4,9.12-.36,.71-1,1.19-1.29,1.52Z"/><path d="M474.54,416.77c-.19,.3-.45,1.04-.9,1.41-1.83,1.52-3.71,2.96-5.59,4.38-.84,.63-1.73,.69-2.25-.49-.51-1.14-.06-2.01,.8-2.67,1.88-1.43,3.72-2.94,5.59-4.39,1.15-.89,2.31-.22,2.35,1.75Z"/></g></g><g id="Layer_2"><polygon points="310.15 207.89 134.36 209.04 128.62 113.68 304.4 131.3 310.15 207.89" fill="none" stroke="#000" stroke-miterlimit="10" stroke-width="2"/><path d="M139.57,263.87l-62.83,2.65c-7.82,0-14.16-6.34-14.16-14.16l-6.19-45.13c0-7.82,6.34-14.16,14.16-14.16l61.95,.88c7.82,0,14.16,6.34,14.16,14.16l7.08,41.59c0,7.82-6.34,14.16-14.16,14.16Z"/><path d="M117.57,266.24c-1.88-11.67,7.17-22.26,19.06-22.29l17.35-.05" fill="none" stroke="#fff" stroke-miterlimit="10" stroke-width="2.11"/><g><path d="M72.56,231.13l21.89-15.95,.26,4.11-18.45,13.19v.12s19.96,10.15,19.96,10.15l.26,4.11-23.68-12.34-.25-3.4Z" fill="#fff"/><path d="M99.8,248.85l11.19-43.08,3.39-.06-11.32,42.73-3.26,.41Z" fill="#fff"/><path d="M141.65,228.84l-22.04,15.26-.21-3.87,18.75-12.54v-.11s-19.95-9.47-19.95-9.47l-.21-3.87,23.54,11.65,.13,2.96Z" fill="#fff"/></g><path d="M698.11,446.87v11.49c0,2.96-2.4,5.36-5.37,5.36h-201.92v162.43c0,1.1-.86,2-1.91,2h-7.59c-1.05,0-1.9-.9-1.9-2v-162.43H171.54c.11,.25,.17,.53,.17,.83v169.34c0,1.2-.97,2.17-2.17,2.17h-9.63c-1.2,0-2.18-.97-2.18-2.17v-169.34c0-.3,.06-.58,.17-.83H36.32c-2.96,0-5.36-2.4-5.36-5.36v-11.49c0-2.96,2.4-5.36,5.36-5.36H692.74c2.97,0,5.37,2.4,5.37,5.36Z" fill="#fff" stroke="#000" stroke-miterlimit="10" stroke-width="2.05"/><rect x="136.93" y="659.14" width="54.96" height="8.43" rx=".95" ry=".95" transform="translate(-498.94 827.76) rotate(-90)"/><path d="M255.86,712.7c0,1.32-.99,2.38-2.2,2.38H75.16c-1.22,0-2.21-1.06-2.21-2.38,0-6.85,5.13-12.4,11.46-12.4h73.01v-9.32c0-.35,.21-.63,.48-.63h13.01c.27,0,.49,.28,.49,.63v9.32h73c6.33,0,11.46,5.55,11.46,12.4Z" fill="#fff" stroke="#000" stroke-miterlimit="10" stroke-width="2"/><rect x="458.8" y="650.59" width="52.12" height="6.87" rx=".83" ry=".83" transform="translate(-169.17 1138.89) rotate(-90)"/><path d="M559.47,700.83c0,1.25-.81,2.26-1.79,2.26h-145.62c-1,0-1.8-1.01-1.8-2.26,0-6.5,4.19-11.76,9.35-11.76h59.56v-8.84c0-.33,.17-.6,.39-.6h10.61c.22,0,.4,.27,.4,.6v8.84h59.55c5.16,0,9.35,5.27,9.35,11.76Z" fill="#fff" stroke="#000" stroke-miterlimit="10" stroke-width="2"/><path d="M379.73,408.26l-221.8,4.58c-9.12,.19-16.98-6.38-18.42-15.38l-20.93-130.95c-1.77-11.08,6.77-21.12,17.98-21.15l216.49-.66c8.69-.03,16.19,6.07,17.94,14.57l26.24,127.03c2.31,11.18-6.09,21.72-17.51,21.96Z"/><polygon points="380.23 393.06 158.87 395.55 140.49 262.34 355.72 261.51 380.23 393.06" fill="#fff"/><g><g><path d="M229.11,280.61c-.85,6.48-1.66,12.91-2.53,19.33-.82,5.96-1.48,11.95-2.43,17.97-.1,.63-.73,1.07-1.35,.88,0,0,0,0-.01,0-3.97-1.21-7.94-2.42-11.91-3.64-.75-.23-1.22-.97-1.11-1.75,.6-4.09,1.19-8.18,1.78-12.27,.03-.24,0-.48,0-.74,1.35-1.35,2.76-2.77,4.17-4.19-.01,.06-.04,.16-.07,.32,.2,.02,.4,.03,.59,.05,0,.03,0,.06,0,.09l-1.05,.22c0,.07,0,.14,0,.2h2.7c0,.07,0,.15,0,.22-.69,0-1.39,.06-2.07-.02-.75-.09-1.3,.12-1.74,.72-.16,.22-.41,.37-.59,.52,.9,.7,1.73,1.35,2.56,2-.42-.24-.85-.47-1.37-.76,.12,2.16,.77,3.93,2.68,5.1-.42-.15-.82-.33-1.13-.61-1.18-1.07-1.7-2.49-1.78-4.01-.05-.89-.49-1.13-1.24-1.32-.34,2.35-.67,4.65-1.01,6.96-.26,1.78-.51,3.57-.78,5.35-.07,.48,.03,.72,.6,.87,1.55,.42,3.11,.83,4.62,1.38,2.05,.75,3.93,1.28,6.06,1.92,.84-6.43,1.67-12.77,2.51-19.2-1.92,.93-3.79,.96-5.85,.06,.94,1.62,1.31,3.08,.41,4.6,.37-1.35,.51-2.68-.28-3.96-.38-.61-.7-1.27-1.09-1.88-.5-.8-1.05-1.58-1.55-2.38-.78-1.25-1.97-1.94-3.31-2.5,.05,.52,.16,1,.12,1.47-.04,.46-.18,.94-.41,1.33-.38,.65-1.07,.71-1.55,.12-.3-.37-.51-.85-.64-1.32-.16-.6-.19-1.22-.28-1.84,.45,.89,.89,1.78,1.41,2.82,.88-1.12,.66-2.25,.7-3.33,.08,.12,.16,.24,.31,.47,.11-.74,.19-1.35,.29-2.06-.55,.23-1.01,.35-.88,.96-.94-.65-.9-1.34-.1-2.08,.03-.03,.07-.09,.07-.13-.02-.28-.06-.57-.09-.85-.25,.13-.52,.24-.76,.39-.24,.14-.48,.46-.67,.42-.21-.04-.46-.36-.53-.61-.4-1.23-.4-1.25-1.69-1.33-.46-.03-.93-.06-1.48-.09,.04,.39,.11,.71,.09,1.01-.02,.43-.11,.85-.17,1.27v-2.26c-.86-.22-1.63-.43-1.66-1.43-.04-1.23,.22-2.36,1.25-3.15,.63-.48,1.13-.25,1.53,.64,1.91-.63,3.82-1.11,5.81,.36,.17-.44,.39-.81,.46-1.21,.17-.96,.39-1.19,1.34-1.06,4.07,.56,8.14,1.13,12.2,1.7m-7.31,.86c.83,1.07,.93,2.1,.78,3.21-.1,.72-.16,1.45-.15,2.17,.02,1.2,.45,1.57,1.64,1.68,.98,.09,1.95,.28,3.01,.43,.26-2.02,.55-4.21,.84-6.46-2.03-.34-3.98-.67-6.13-1.03Zm3.43,11.85c0-.39-.05-.67,.01-.93,.13-.53,.45-.92,1.06-.85,.62,.07,.62,.56,.61,1.02-.03,1.32-1.11,2.58-2.51,2.92-2.93,.71-5.84-1.22-6.22-4.21-.12-.97,0-1.99,.1-2.98,.12-1.01,.41-2.01,.54-3.02,.06-.47-.07-.97-.13-1.66-.13,1.21-.23,2.19-.35,3.17-.15,1.23-.48,2.47-.45,3.7,.05,3.14,2.09,5.15,5.22,5.37,1.95,.13,3.67-1.16,4-3,.14-.8-.2-1.47-.79-1.56-.63-.09-1.36,.56-1.35,1.31,0,.29,.18,.77,.39,.84,.26,.09,.64-.15,.96-.25-.02-.05-.04-.1-.07-.16-.31,.09-.62,.17-1.04,.29Zm-9.37-10.96c.4-.12,.79-.27,1.2-.37,2.5-.62,4.13,.67,4.02,3.23-.03,.76-.24,1.53-.49,2.25-.45,1.29-.84,2.57-.61,3.96,.26,1.6,1.5,2.65,3.01,2.45-.17-.06-.25-.1-.34-.12-1.49-.28-2.16-.95-2.44-2.43-.24-1.29,.18-2.46,.55-3.66,.26-.85,.46-1.74,.53-2.62,.1-1.28-.31-2.44-1.5-3.05-1.34-.69-2.7-.41-3.93,.36Zm-.65,4.12c.6-1.4-.05-2.72-1.42-2.86-.8-.08-1.63,.11-2.44,.21-.81,.1-1.62,.29-2.44,.35-.61,.05-.93-.29-.83-.95,.02-.11,0-.23,0-.49-.43,1.04-.11,1.62,.83,1.7,.29,.02,.6,0,.89-.06,.83-.16,1.66-.39,2.49-.51,2.25-.34,2.95,.27,2.91,2.61Zm.12,27.56c-.05,.14-.09,.27-.14,.41,1,.32,2,.63,3,.95,.04-.13,.09-.26,.13-.39-1-.32-1.99-.64-2.99-.97Zm.23-30.47c-.2-.82-.61-1.18-1.2-1.38-.95-.33-2.95-.04-3.56,.52,1.62-.24,3.35-1.22,4.75,.86Zm.54-.92c-.01,.08-.03,.15-.04,.23,.66,.1,1.31,.2,1.97,.3,.01-.06,.02-.13,.03-.19-.65-.11-1.31-.23-1.96-.34Z"/><path d="M170.45,278.67c1.14-.16,1.38,0,1.55,1.13,.35,2.4,.71,4.81,1.04,7.21,.06,.45,.24,.55,.63,.45-.13,.18-.21,.41-.38,.53-.96,.68-1.1,1.6-.85,2.66,.13,.56,.2,1.13,.36,1.68,.08,.29,.29,.55,.53,.98,.69-.75,1.27-1.38,1.86-2.01-.25,.73-.44,1.5-.77,2.18-.62,1.27-1.36,1.28-2.09,.09-.85-1.38-1.07-2.89-.86-4.52-.16,.05-.27,.09-.38,.12,0-.02-.02-.07,0-.07,1-.64,.75-1.56,.6-2.49-.32-2.05-.6-4.11-.92-6.29-3.71,.63-7.37,1.25-11.13,1.89,1.44,11.05,2.87,22.04,4.32,33.17,3.79-1.17,7.52-2.33,11.36-3.52-.23-1.61-.45-3.2-.69-4.89-1.18,.01-2.44,.11-2.92-1.36,1.11,1.62,2.7,1.18,4.21,.96,.34,2.35,.67,4.66,1.01,6.96,.14,.93-.07,1.26-.98,1.54-4,1.23-7.99,2.45-11.99,3.68-1.19,.37-1.3,.32-1.5-1.01-.26-1.73-.47-3.47-.7-5.21-.78-5.91-1.56-11.82-2.34-17.73-.57-4.34-1.15-8.69-1.72-13.03-.04-.27,0-.55-.04-.82m14.18,33.46c-.05-.13-.09-.26-.14-.4-1.04,.36-2.1,.63-3.11,1.07,.04,.12,.09,.24,.13,.37,1.04-.35,2.08-.7,3.12-1.04Z"/><path d="M173.69,287.09c-.18-.86-.37-1.72-.52-2.59-.01-.09,.18-.24,.31-.31,.82-.45,.88-.45,2.45-.43-.58-.08-1.16-.17-1.69-.24,.59-.65,1.87-.84,2.96-.36,.71,.31,1.39,.7,2.11,.97,.6,.23,1.25,.37,1.79-.26-1.2,.58-2.16-.09-3.12-.6-1.02-.54-2.07-.82-3.16-.38-.58,.24-1.08,.66-1.58,.97-.14-1.46,1.04-2.94,2.62-2.96,.91-.01,1.82,.27,2.73,.4,.3,.04,.65,.08,.91-.03,.76-.32,1.53-.5,2.19,.09,.68,.6,.79,1.45,.57,2.29-.23,.84-.92,1.13-1.72,1.22-.1,.01-.19,.04-.38,.07,0,1.04-.28,2.1,.28,3.1-.17-.38-.44-.75-.5-1.15-.07-.49,.05-1,.04-1.49,0-.19-.1-.49-.24-.56-.7-.34-1.41-.64-2.14-.9-.43-.15-.79-.05-.61,.54,.18,.58-.08,.82-.59,.99-.24,.08-.49,.23-.64,.42-.21,.28-.34,.63-.52,.99-.2-.5-.33-.94-.55-1.32-.1-.17-.42-.34-.6-.31-.18,.03-.41,.31-.44,.5-.05,.44,0,.89,.02,1.34Z"/><path d="M196.02,306.18c-.14,.1-.27,.19-.48,.34-.04-.25-.06-.43-.1-.66-.24,.03-.46,.06-.83,.11,.19-.35,.33-.59,.46-.84,.64-.5,1.28-1.01,1.92-1.51-.04-.06-.08-.12-.11-.19-.37,.1-.74,.21-1.11,.31-.39,.1-.5-.05-.36-.42,.32-.18,.63-.36,.95-.53,1.1-.84,2.27-.16,3.39-.21,.09,.24,.16,.42,.23,.6,0,0-.01-.03-.01-.03,.22,.88-.57,1.28-.91,1.9-.52,.27-1.04,.55-1.56,.82-.21,.07-.43,.15-.75,.26,.21-.32,.36-.55,.51-.78-.04-.04-.08-.08-.12-.12l-1.13,.96Z"/><path d="M185.51,305.44c-.26-.5-.16-.88,.34-1.18,.25-.15,.46-.36,.69-.55,.14-.1,.29-.2,.43-.3,.86-.36,1.91-.2,2.8,.48-.66,.04-1.23,.07-1.8,.11,.57,.28,1.14,.36,1.67,.54,.35,.12,.65,.38,.97,.58-1.66,.71-3.35,1.09-5.11,.31Z"/><path d="M174.56,296.91c.28,2.1,.56,4.2,.85,6.3,.02,.15,.19,.28,.28,.41q-1.33,.1-1.76-1.1c-.39-1.08-.77-2.16-1.16-3.24,.33,.6,.65,1.19,.99,1.81-.12-.75-.23-1.5-.35-2.26-.23,.17-.43,.31-.63,.46-.07-.17-.15-.35-.17-.41,.22-.1,.45-.13,.56-.26,.48-.55,.93-1.13,1.39-1.71Z"/><path d="M209.98,296.55c-.08-.34-.22-.68-.24-1.03-.04-.67-.01-1.34-.01-2.11-.28,.13-.51,.25-.74,.36,.14-.18,.29-.35,.46-.57-.31-.1-.65-.21-1.12-.37,.46-.03,.83-.15,1.06-.03,.24,.13,.49,.49,.51,.76,.08,.99,.06,1.99,.08,2.99Z"/><path d="M170.35,303.54c-.19,.17-.4,.33-.56,.53-.48,.6-.97,1.17-1.75,1.38,.59-.63,1.2-1.24,1.75-1.88,.09-.11-.03-.41-.05-.62,0-.15,0-.3,0-.44,.05-.02,.09-.04,.14-.06,.16,.37,.32,.74,.47,1.1Z"/><path d="M168.77,303.76c-1.27,.84-3.31,.22-3.7-1.13,.97,1.23,2.24,1.51,3.7,1.13Z"/><path d="M168.68,291.66c.11-.21,.17-.46,.32-.61,.69-.65,1.4-1.27,2.1-1.89-.81,.83-1.62,1.67-2.43,2.5Z"/><path d="M196.02,306.18l1.13-.96s.08,.08,.12,.12c-.15,.23-.3,.46-.51,.78,.32-.11,.53-.19,.75-.26-.19,.15-.37,.33-.58,.44-.08,.04-.25-.09-.38-.15,.02-.06,.03-.12,.05-.18-.19,.07-.38,.13-.57,.2Z"/><path d="M166.13,295.12c-.23,.05-.49,.04-.68,.15-.29,.19-.54,.46-.8,.69-.06-.08-.12-.16-.17-.23,.65-.46,1.31-.92,1.96-1.38-.1,.26-.2,.52-.31,.77Z"/><path d="M163.5,298.15c-.16,3.12-.13,6.11,3.44,7.4-.45,.13-1.12-.05-1.74-.58-.89-.75-1.42-1.73-1.72-2.84-.37-1.33-.32-2.65,.02-3.98Z"/><path d="M221.76,297.56c1.22,3.6-1.04,7.84-3.57,7.41,.48-.16,.89-.24,1.25-.42,1.22-.63,1.92-1.73,2.15-3.01,.21-1.13,.13-2.32,.18-3.48,0-.17,0-.33,0-.5Z"/><ellipse cx="208.65" cy="286.3" rx=".3" ry=".61"/><ellipse cx="178.84" cy="286.52" rx=".3" ry=".61"/><path d="M207.84,289.17c.73-.31,1.3-.29,1.86-.84,.16,.96-1.2,1.36-1.86,.84h0Z"/><path d="M179.63,289.94c-.66,.52-2.02,.12-1.86-.84,.56,.55,1.12,.53,1.86,.84h0Z"/></g><g><path d="M194.05,271.99v5.39c0,.72-.58,1.29-1.3,1.29h-7.55c-.86,1.81-2.9,1.47-2.21,1.47,.57,0,.68-1.08,.7-1.47h-.73c-.72,0-1.29-.58-1.29-1.29v-5.39c0-.72,.58-1.29,1.29-1.29h9.8c.72,0,1.3,.58,1.3,1.29Z"/><text transform="translate(185.63 275.27)" fill="#fff" font-family="MyriadPro-Regular, &apos;Myriad Pro&apos;" font-size="7.16"><tspan x="0" y="0">...</tspan></text></g><g><path d="M191.83,281.07v5.39c0,.72,.58,1.29,1.3,1.29h7.55c.86,1.81,2.9,1.47,2.21,1.47-.57,0-.68-1.08-.7-1.47h.73c.72,0,1.29-.58,1.29-1.29v-5.39c0-.72-.58-1.29-1.29-1.29h-9.8c-.72,0-1.3,.58-1.3,1.29Z"/><text transform="translate(195.8 284.08)" fill="#fff" font-family="MyriadPro-Regular, &apos;Myriad Pro&apos;" font-size="7.16"><tspan x="0" y="0">...</tspan></text></g></g><g><line x1="161.93" y1="328.54" x2="219.49" y2="328.15" fill="none" stroke="#000" stroke-miterlimit="10" stroke-width="3.51"/><line x1="162.71" y1="339.06" x2="250.78" y2="338.67" fill="none" stroke="#000" stroke-miterlimit="10" stroke-width="4.34"/><line x1="163.49" y1="349.58" x2="220.89" y2="349.19" fill="none" stroke="#000" stroke-miterlimit="10" stroke-width="3.51"/><line x1="165.11" y1="371.41" x2="222.33" y2="371.02" fill="none" stroke="#000" stroke-miterlimit="10" stroke-width="3.51"/><line x1="165.98" y1="383.09" x2="251.22" y2="382.75" fill="none" stroke="#000" stroke-miterlimit="10" stroke-width="3.97"/></g><path d="M312.98,321.34c-.77-2.2-.4-4.25,.68-6.16,1.64-2.89,4.29-4.27,7.5-4.75,4.64-.69,9.27,2.36,10.35,6.9,.87,3.64-.01,6.85-2.82,9.36-2.87,2.56-6.23,3-9.79,1.71-1.02-.37-1.93-1.05-2.85-1.64-.28-.18-.44-.23-.73-.06-4.52,2.54-9.04,5.06-13.56,7.59-1.19,.66-2.37,1.33-3.57,2,.64,1.15,.53,2.28,.09,3.4-.21,.54-.12,.82,.42,1.13,5.42,3.09,10.83,6.22,16.24,9.34,.07,.04,.14,.07,.27,.13,1.14-1.06,2.49-1.76,4-2.19,4.23-1.19,8.61,.5,10.81,4.18,2.14,3.59,1.64,8.28-1.35,11.3-2.7,2.73-6.01,3.53-9.64,2.35-3.64-1.19-5.72-3.83-6.35-7.62-.16-.95-.02-1.83,.32-2.71,.13-.35,.15-.6-.27-.83-5.58-3.1-11.16-6.21-16.72-9.34-.4-.22-.61-.15-.93,.11-5.61,4.44-13.87,1.93-15.42-5.08-.82-3.69,.25-6.9,3.18-9.28,3.05-2.49,6.49-2.78,10.06-1.14,.8,.37,1.51,.92,2.28,1.35,.18,.1,.51,.14,.67,.04,5.72-3.34,11.43-6.71,17.14-10.07,.02,0,.02-.03,0,0Zm-24.17,12.91c-2.35-.02-4.17,1.77-4.2,4.12-.02,2.52,1.52,4.1,4.06,4.15,2.33,.05,4.19-1.76,4.22-4.1,.03-2.29-1.78-4.15-4.09-4.17Zm33.14,19.19c-2.29,0-4.11,1.79-4.14,4.06-.02,2.36,1.8,4.23,4.1,4.21,2.37-.01,4.17-1.8,4.17-4.15,0-2.31-1.81-4.12-4.13-4.12Zm-.07-30.13c2.35,.03,4.17-1.72,4.2-4.03,.04-2.36-1.75-4.2-4.09-4.21-2.3-.02-4.14,1.75-4.18,4.01-.04,2.36,1.74,4.21,4.07,4.23Z"/><g><path d="M303.74,304.76c-.93,0-1.87,.01-2.8,0-1.15-.02-2.1-.82-2.29-1.94-.06-.35-.03-.71-.06-1.06-.03-.48-.09-.95-.12-1.42-.03-.41-.21-.76-.48-1.06-.57-.62-1.15-1.24-1.72-1.87-2.81-3.12-3.02-8.08-1.03-11.38,1.13-1.87,2.7-3.23,4.71-4.08,2.25-.95,4.56-1.02,6.86-.28,1.94,.62,3.54,1.77,4.79,3.38,2.62,3.38,2.37,7.87,.79,10.73-.49,.89-1.14,1.66-1.83,2.39-.35,.36-.69,.73-1.03,1.1-.3,.33-.47,.71-.5,1.16-.04,.65-.11,1.3-.12,1.95-.03,1.37-1.03,2.39-2.4,2.4-.92,0-1.84,0-2.76,0h0Zm.76-1.66c.08,0,.13,.02,.18,.02,.58,0,1.17,0,1.75,0,.51,0,.77-.28,.79-.79,.02-.54,.06-1.07,.08-1.61,.04-1.14,.46-2.11,1.28-2.91,.36-.35,.69-.72,1.03-1.08,2.05-2.15,2.72-4.73,2.11-7.57-.69-3.17-2.73-5.23-5.84-6.06-3.09-.83-5.84-.02-8.07,2.27-1.99,2.04-2.53,4.54-2.05,7.3,.28,1.63,1.09,2.98,2.22,4.16,.5,.52,.99,1.05,1.46,1.61,.36,.42,.59,.92,.64,1.47,.07,.82,.14,1.64,.19,2.47,.03,.4,.24,.71,.62,.72,.64,.03,1.27,0,1.91,0,.01,0,.02-.01,.04-.03,0-.04,0-.09,0-.13,0-2.39,0-4.78,0-7.17,0-.09-.05-.19-.11-.26-.35-.37-.72-.72-1.08-1.08-.48-.48-.97-.96-1.45-1.45-.42-.43-.3-1.1,.23-1.35,.33-.15,.68-.07,.97,.22,.68,.68,1.36,1.36,2.04,2.03,.07,.07,.15,.14,.25,.24,.11-.13,.21-.24,.31-.35,.66-.66,1.32-1.32,1.98-1.98,.24-.24,.54-.3,.85-.19,.32,.11,.5,.35,.55,.69,.04,.3-.1,.54-.31,.75-.81,.8-1.61,1.61-2.43,2.42-.11,.11-.16,.22-.16,.39,0,2.34,0,4.67,0,7.01,0,.08,0,.16,0,.24Z"/><path d="M303.75,307.41c-.91,0-1.83,0-2.74,0-.41,0-.72-.19-.91-.56-.17-.34-.15-.68,.06-.99,.19-.29,.48-.45,.83-.46,1.84,0,3.68,0,5.52,0,.57,0,1.01,.47,1,1.02,0,.54-.45,.98-1.02,.99-.91,0-1.83,0-2.74,0Z"/><path d="M303.74,309.95c-.89,0-1.77,0-2.66,0-.14,0-.28-.02-.41-.06-.47-.16-.75-.62-.67-1.11,.07-.47,.49-.83,.99-.84,.63,0,1.26,0,1.89,0,1.19,0,2.39,0,3.58,0,.65,0,1.12,.55,1.02,1.17-.08,.49-.5,.84-1.03,.84-.91,0-1.81,0-2.72,0Z"/><path d="M292.5,289.36c-.03,.7-.06,1.38-.09,2.08-.04,0-.09,.01-.14,.01-1.17,0-2.35,0-3.52,0-.83,0-1.35-.81-.99-1.53,.18-.36,.49-.57,.89-.57,1.27-.01,2.54,0,3.8,0,.02,0,.04,.01,.06,.02Z"/><path d="M314.99,289.36s.08-.02,.12-.02c1.22,0,2.44,0,3.67,0,.51,0,.92,.33,1.04,.8,.16,.63-.27,1.28-.94,1.3-1.26,.03-2.52,.01-3.79,.01-.03-.7-.06-1.38-.09-2.09Z"/><path d="M312.44,283.34c-.49-.5-.97-1-1.47-1.52,.04-.04,.09-.09,.14-.14,.83-.81,1.65-1.63,2.49-2.44,.56-.55,1.46-.38,1.76,.32,.17,.39,.13,.79-.17,1.09-.9,.91-1.81,1.79-2.72,2.68,0,0-.02,.01-.03,.01Z"/><path d="M296.51,281.82c-.5,.51-.97,1.01-1.46,1.52-.04-.03-.09-.07-.13-.12-.83-.82-1.67-1.63-2.5-2.45-.48-.47-.5-1.1-.07-1.54,.43-.44,1.1-.43,1.57,.03,.83,.81,1.66,1.62,2.49,2.44,.04,.04,.08,.09,.12,.12Z"/><path d="M304.81,280.01h-2.13s-.01-.11-.01-.17c0-1.1,0-2.2,0-3.3,0-.66,.46-1.13,1.09-1.12,.54,0,.98,.4,1.05,.93,.01,.08,.01,.16,.01,.24,0,1.07,0,2.15,0,3.22,0,.07,0,.13,0,.2Z"/><path d="M295.83,299.65c-.68,.67-1.34,1.33-2.03,1.97-.42,.39-1.09,.32-1.49-.1-.38-.42-.37-1.03,.05-1.45,.7-.69,1.41-1.38,2.12-2.08,.45,.55,.89,1.1,1.35,1.66Z"/><path d="M311.67,299.64c.45-.56,.89-1.1,1.37-1.68,.23,.24,.45,.49,.68,.72,.45,.46,.92,.9,1.38,1.36,.46,.45,.48,1.08,.06,1.51-.43,.44-1.09,.45-1.55,.01-.62-.6-1.24-1.21-1.85-1.82-.03-.03-.05-.06-.08-.09Z"/></g><polygon points="325.09 192.96 144.7 196.4 136.66 98.74 319.72 107.17 325.09 192.96"/><polyline points="165.22 122.22 169.49 129.77 181.63 109.09" fill="none" stroke="#fff" stroke-miterlimit="10" stroke-width="2.14"/><polyline points="168.54 148.22 172.81 155.77 184.96 135.09" fill="none" stroke="#fff" stroke-miterlimit="10" stroke-width="2.14"/><ellipse cx="178.02" cy="175.34" rx="6.89" ry="7.79" fill="none" stroke="#fff" stroke-miterlimit="10" stroke-width="2.04"/><line x1="194.11" y1="119.3" x2="262.02" y2="122.11" fill="none" stroke="#fff" stroke-miterlimit="10" stroke-width="2.14"/><line x1="194.11" y1="174.1" x2="262.07" y2="175.05" fill="none" stroke="#fff" stroke-miterlimit="10" stroke-width="2.14"/><line x1="194.11" y1="146.53" x2="262.07" y2="147.47" fill="none" stroke="#fff" stroke-miterlimit="10" stroke-width="2.14"/><polygon points="314.23 130.53 282.06 130.28 281.3 117.77 313.47 118.53 314.23 130.53" fill="none" stroke="#fff" stroke-miterlimit="10" stroke-width="1"/><polygon points="315.83 150.2 283.66 149.94 282.89 137.43 315.06 138.2 315.83 150.2" fill="none" stroke="#fff" stroke-miterlimit="10" stroke-width="1"/><polygon points="317.23 169.95 285.06 169.7 284.3 157.19 316.47 157.95 317.23 169.95" fill="none" stroke="#fff" stroke-miterlimit="10" stroke-width="1"/><polygon points="330.57 428.19 330.57 424.66 324.45 424.66 324.45 428.19 322.15 428.19 322.15 424.66 316.02 424.66 316.02 428.19 314.49 428.19 314.49 424.66 308.36 424.66 308.36 428.19 305.94 428.19 305.94 424.66 299.81 424.66 299.81 428.19 296.49 428.18 296.49 424.66 290.36 424.66 290.36 428.18 288.32 428.18 288.32 424.66 282.19 424.66 282.19 428.18 279.89 428.18 279.89 424.66 273.77 424.66 273.77 428.18 272.23 428.18 272.23 424.66 266.11 424.66 266.11 428.18 258.45 428.18 258.45 437.18 484.4 437.23 484.41 428.23 330.57 428.19"/></g><g id="Layer_3"><g><g><path d="M570.77,659.77c.44-8.75-2.86-17.3-7.2-24.92s-11.57-16.11-15.97-23.69l-59.77,28.07c-.23,1.22,.7,2.33,1.58,3.21,5.15,5.2,12.62,8.86,18.36,13.4l31.91,14.3,31.46-10.3" fill="#fff"/><path d="M571.55,659.77c.4-9.36-3.18-18.42-7.91-26.34s-10.75-14.77-15.37-22.66c-.23-.39-.69-.46-1.08-.28-8.02,3.76-16.03,7.53-24.05,11.29-10.95,5.14-21.91,10.29-32.86,15.43-.89,.42-1.95,.76-2.77,1.3-1.05,.69-.35,2.34,.2,3.17,1.53,2.27,4.09,4.05,6.27,5.65,2.38,1.74,4.87,3.32,7.33,4.94,1.22,.8,2.43,1.61,3.61,2.45,.82,.58,1.6,1.32,2.47,1.83,1.25,.74,2.73,1.22,4.05,1.81l18.11,8.11,7.49,3.35c.78,.35,2.04,1.22,2.93,1.05,1.57-.3,3.18-1.04,4.7-1.54l9.17-3c5.51-1.8,11.02-3.61,16.53-5.41,.33-.11,.65-.21,.98-.32,.96-.31,.55-1.84-.42-1.52-10.29,3.37-20.59,6.74-30.88,10.11-.08,.03-.47,.09-.52,.17-.03,.05,.75,.29,.41,.04-.47-.36-1.21-.54-1.75-.78l-7.84-3.51c-6.29-2.82-12.58-5.64-18.87-8.45l-2.79-1.25c-1.28-.57-2.32-1.61-3.47-2.41-2.98-2.08-6.09-3.97-9.08-6.06-1.53-1.07-3.02-2.18-4.42-3.4-1.21-1.06-3.29-2.52-3.11-4.3l-.39,.68c6.74-3.16,13.48-6.33,20.22-9.49,10.73-5.04,21.46-10.08,32.2-15.12,2.45-1.15,4.9-2.3,7.35-3.45l-1.08-.28c4.48,7.66,10.32,14.41,14.95,21.97,4.82,7.86,8.51,16.87,8.12,26.24-.04,1.01,1.53,1.01,1.58,0h0Z"/></g><g><path d="M364.31,640.82c-9.36,9.28-20.12,17.15-31.8,23.25l-17,1.74c-9.38-1.68-20.72-6.44-25.28-14.81l-1.22-9.25c1.16-10.26,5.1-24.87,8.65-34.56" fill="#fff"/><path d="M363.75,640.26c-8.6,8.51-18.34,15.82-28.93,21.67-1.14,.63-1.94,1.31-3.17,1.43l-3.48,.36-9.58,.98c-.92,.09-1.87,.25-2.79,.29-1.51,.05-3.22-.58-4.66-.98-4.79-1.31-9.47-3.27-13.53-6.16-2.01-1.43-3.87-3.14-5.33-5.12-.3-.41-.59-.83-.85-1.26-.13-.21-.41-.55-.41-.55-.15-.38-.13-.96-.18-1.37l-.61-4.64c-.14-1.02-.4-2.11-.41-3.14-.02-1.21,.31-2.51,.5-3.71,.22-1.4,.47-2.79,.75-4.18,.61-3.09,1.32-6.16,2.09-9.22,1.49-5.83,3.21-11.62,5.28-17.27,.35-.95-1.17-1.36-1.52-.42-3.82,10.45-6.85,21.45-8.39,32.48-.19,1.35-.28,2.41-.1,3.74l.66,4.99c.13,.96,.12,2.09,.4,3.02s1.14,1.93,1.74,2.72c.74,.96,1.55,1.86,2.43,2.7,3.61,3.42,8.11,5.8,12.74,7.52,2.41,.89,4.89,1.6,7.4,2.13,1.08,.23,1.78,.31,2.82,.21,3-.31,6-.61,9-.92,2.25-.23,4.65-.26,6.87-.7,1.08-.22,2.18-1.03,3.14-1.57,1.54-.85,3.06-1.73,4.56-2.64,3.01-1.82,5.94-3.76,8.79-5.82,5.64-4.07,10.95-8.57,15.9-13.46,.72-.71-.39-1.83-1.11-1.11h0Z"/></g><g><path d="M583.83,471.25c1.96,15.63,10.52,37.97,1.44,50.84-2.07,2.94-4.5,5.61-6.92,8.27-3.12,3.43-3.01,9.84-6.13,13.28l-12.26-.51c-43,4.91-89.93,2.61-130.42-12.69l.04,1.51c1.77,21.6-5.06,43.36-16.53,61.75-11.47,18.4-27.36,33.68-44.52,46.93l.83,.72c-28.14,1.81-56.76-12.57-72.11-36.23l.55-.44c11.07-44,37.85-82.14,64.11-119.14,4.5-6.34,9.03-12.73,14.7-18.05,10.4-9.78,24.11-15.46,38.09-18.38s28.34-3.25,42.62-3.58c18.39-.42,36.78-.84,55.18-1.26,7.47-.17,15.2-.29,22.08,2.63,9.71,4.13,16.13,13.64,25.38,18.73,6.76,3.72,14.59,4.86,22.23,5.93"/><path d="M583.08,471.25c.87,6.76,2.54,13.39,3.8,20.09s2.45,14.14,1.32,21.13c-.51,3.17-1.55,6.26-3.36,8.93-1.14,1.69-2.45,3.27-3.78,4.81s-2.89,2.96-4.03,4.64c-1.76,2.57-2.27,5.76-3.33,8.63-.29,.79-.62,1.56-1.04,2.28-.2,.35-.44,.78-.72,1.07-.43,.43,.51-.04,.21,.05-.49,.15-1.33-.06-1.84-.08l-6.46-.27c-1.44-.06-2.94-.25-4.38-.1-8.11,.8-16.21,1.56-24.35,1.92-16.86,.75-33.79,.29-50.56-1.68-18.68-2.2-37.18-6.33-54.81-12.97-.45-.17-.96,.27-.95,.72,.1,3.52,.38,7.02,.29,10.55-.11,4.45-.57,8.89-1.34,13.27-1.52,8.63-4.21,17.05-7.82,25.03-7.15,15.81-17.84,29.73-30.12,41.9-6.84,6.77-14.18,13.02-21.79,18.91-.31,.24-.28,.82,0,1.06l.83,.72,.53-1.28c-21.76,1.33-43.67-6.87-59.57-21.72-4.52-4.22-8.51-8.96-11.89-14.14l-.12,.91c.79-.63,.86-1.25,1.12-2.24,.38-1.47,.78-2.93,1.2-4.38,.83-2.91,1.73-5.79,2.69-8.66,1.96-5.81,4.17-11.54,6.6-17.17,4.81-11.12,10.44-21.86,16.56-32.31s12.83-20.76,19.71-30.84c6.89-10.11,13.86-20.2,21.14-30.04,3.71-5.02,7.72-9.86,12.49-13.92,4.45-3.8,9.47-6.9,14.75-9.41,11.2-5.32,23.49-7.86,35.76-9.07,13.43-1.33,26.97-1.31,40.45-1.62,13.79-.31,27.59-.63,41.38-.94,6.22-.14,12.59-.37,18.67,1.21,5.52,1.43,10.13,4.6,14.41,8.26,4.02,3.44,7.8,7.18,12.2,10.14,4.85,3.25,10.39,5.06,16.08,6.19,2.97,.59,5.98,1.02,8.98,1.44,.94,.13,1.35-1.31,.4-1.45-6.05-.85-12.18-1.72-17.91-3.93s-9.97-5.73-14.31-9.59c-3.98-3.53-7.92-7.23-12.61-9.8-5.18-2.84-11-3.81-16.85-4.02-6.55-.23-13.14,.13-19.69,.28-6.99,.16-13.99,.32-20.98,.48-13.68,.31-27.4,.37-41.07,1.14-24.07,1.36-49.58,6.63-66.49,25.24-4.11,4.53-7.66,9.53-11.19,14.51s-7.24,10.21-10.82,15.35c-7.03,10.08-13.93,20.27-20.41,30.73-12.81,20.67-24.07,42.54-30.96,65.94-.43,1.45-.84,2.91-1.23,4.37-.27,.99-.31,2.4-1.12,3.04-.25,.2-.28,.65-.12,.91,12.12,18.57,32.15,31.51,53.92,35.47,6.21,1.13,12.53,1.52,18.83,1.14,.6-.04,1.06-.83,.53-1.28l-.83-.72v1.06c13.69-10.58,26.53-22.4,37.07-36.17,10.7-13.98,18.87-30.06,22.48-47.36,1-4.82,1.65-9.71,1.89-14.63,.2-4.21-.1-8.36-.22-12.56l-.95,.72c15.91,5.99,32.54,9.94,49.38,12.27,16.97,2.35,34.13,3.12,51.25,2.62,8.51-.25,17.01-.82,25.48-1.68,2.22-.23,4.32-.5,6.54-.4l6.75,.28,2.68,.11c.44,.02,.87,.11,1.26-.13,1.06-.65,1.74-2.52,2.18-3.61,.63-1.56,1.06-3.18,1.58-4.77s1.12-3.32,2.21-4.68c1.37-1.7,2.95-3.25,4.35-4.93,2.24-2.68,4.28-5.44,5.47-8.75,2.26-6.28,1.85-13.27,.98-19.77-.97-7.21-2.75-14.28-4.06-21.44-.31-1.67-.58-3.35-.8-5.04-.12-.94-1.62-.96-1.5,0h0Z" fill="#4d4d4d"/></g><g><path d="M418.72,588.05c14.11,23.69,36.72,42.2,62.74,51.33l.89,.93c20.6,0,41.14-6.9,57.57-19.31,4.98-3.76,9.75-8.25,11.88-14.11l-.66-.84c-9.05-25.57-24.94-45.2-46.32-61.9l-21.06-1.22c-11.38,.49-22.96-1.95-33.94-5l-17.59-4.89-.3,8.28c-.43,11.71-3.04,23.24-7.69,33.99l-5.51,12.73Z"/><path d="M418.08,588.43c12.28,20.55,30.82,37.24,52.53,47.34,2.65,1.23,5.35,2.37,8.09,3.4,1.07,.41,2.05,.59,2.84,1.38,.87,.87,2.21,.51,3.37,.48,6.45-.18,12.89-1.03,19.18-2.49,12.64-2.95,24.72-8.44,35.19-16.12,4.79-3.51,9.54-7.57,12.24-12.97,.43-.86,1.34-2.18,.82-3.09-.16-.28-.48-.5-.62-.8-.28-.58-.44-1.37-.68-2-1.05-2.8-2.2-5.57-3.44-8.29-4.96-10.87-11.52-20.96-19.3-30.02-3.9-4.54-8.09-8.82-12.51-12.85-2.26-2.06-4.58-4.06-6.94-6-1.1-.9-2.23-2.1-3.48-2.78-.31-.17-.5-.21-.83-.24-6.15-.45-12.32-.71-18.47-1.07-3.93-.23-7.86-.02-11.8-.35-7.43-.62-14.74-2.21-21.93-4.13-5.98-1.6-11.94-3.3-17.9-4.96l-1.99-.55c-.48-.13-.93,.24-.95,.72-.28,7.63-.49,15.21-1.97,22.73-1.68,8.61-4.82,16.62-8.29,24.62-1.05,2.42-2.1,4.85-3.15,7.27-.38,.88,.91,1.64,1.3,.76,1.84-4.24,3.68-8.48,5.51-12.73,4.7-10.91,7.35-22.59,7.8-34.46,.1-2.73,.2-5.47,.3-8.2l-.95,.72c5.74,1.59,11.48,3.19,17.22,4.78,6.44,1.79,12.94,3.36,19.57,4.29,3.85,.54,7.73,.88,11.62,.9,1.52,0,3.02-.08,4.54,0l10.56,.61,5.76,.33c1.05,.06,2.25-.03,3.29,.19,.07,.01,.16-.01,.22,.01-.35-.13,.03,.19,.12,.28,.33,.32,.75,.59,1.11,.88,1.31,1.05,2.61,2.11,3.89,3.2,2.57,2.18,5.08,4.43,7.52,6.76,4.67,4.47,9.07,9.24,13.09,14.31,8.26,10.41,14.83,22.11,19.4,34.58,.37,1,.69,1.68,1.33,2.51l-.19-.73c-1.93,5.16-5.88,9.18-10.11,12.56s-9.08,6.5-13.99,9.11c-9.97,5.3-20.9,8.83-32.09,10.35-2.89,.39-5.8,.65-8.71,.77-.71,.03-1.42,.05-2.13,.06-.33,0-1.44,.05-1.26,.14-.25-.13-.44-.51-.66-.69-.37-.32-.73-.43-1.2-.6-4.84-1.74-9.55-3.8-14.11-6.16-9.18-4.76-17.73-10.72-25.39-17.67-8.62-7.83-16.08-16.9-22.06-26.9-.49-.83-1.79-.07-1.3,.76Z" fill="#4d4d4d"/></g><g><path d="M285.45,643.44c1.68,2.21,5.7-.17,5.45-2.93s-3.05-4.62-5.77-5.19c-3.41-.72-7.1-.04-10.03,1.85-1.94,1.25-3.56,3-5.63,4.04-2.15,1.08-4.61,1.3-7.01,1.34-13.28,.27-27.34-4.03-39.38,1.56-4.86,2.26-9.38,7.26-7.97,12.43,1.08,3.98,5.15,6.27,8.87,8.06,29.7,14.26,61.32,24.52,93.74,30.41,2.06,.37,4.29,.71,6.17-.22,2.35-1.16,3.39-3.9,4.1-6.42,2.17-7.67,3.19-15.67,3.02-23.64-6.77-2.5-14.38-1.21-21.36-3.05-9.28-2.44-16.21-9.97-22.58-17.15"/><path d="M284.39,644.5c2.11,2.47,5.93,1.05,7.37-1.42,1.88-3.21-.63-6.77-3.53-8.24-3.58-1.82-8.03-1.64-11.67-.11-3.88,1.63-6.38,5.29-10.67,6.04s-8.87,.21-13.14-.13-8.84-.84-13.28-.91c-7.93-.14-17.41,1.07-22.95,7.41-2.42,2.76-3.91,6.49-2.74,10.14s4.13,5.79,7.21,7.48c3.85,2.1,7.93,3.84,11.94,5.62,4.22,1.88,8.47,3.68,12.75,5.4,17.22,6.92,34.97,12.54,53.04,16.8,4.52,1.06,9.05,2.04,13.61,2.94,2.22,.44,4.45,.91,6.69,1.22,2.02,.27,4.14,.25,5.96-.8,3.4-1.97,4.35-6.4,5.21-9.92,1.13-4.62,1.85-9.35,2.18-14.09,.16-2.39,.21-4.78,.17-7.17-.01-.7-.46-1.22-1.1-1.45-8.18-2.92-17.28-.77-25.28-4.43-7.29-3.34-12.78-9.5-18-15.38-1.28-1.45-3.4,.68-2.12,2.12,5.38,6.06,11.1,12.42,18.61,15.85,3.97,1.82,8.14,2.51,12.46,2.81,4.57,.32,9.17,.36,13.53,1.92l-1.1-1.45c.15,8.24-.71,16.98-3.46,24.79-.5,1.43-1.25,3.01-2.61,3.79-1.66,.95-3.78,.51-5.55,.19-4.03-.73-8.05-1.54-12.06-2.41-16.25-3.53-32.26-8.16-47.89-13.84-7.8-2.84-15.51-5.93-23.1-9.3-3.66-1.62-7.32-3.28-10.91-5.06-2.7-1.34-5.88-3.03-7.11-5.97-1.32-3.13,.34-6.32,2.59-8.52,2.65-2.6,6.19-3.98,9.75-4.8,7.64-1.75,15.64-.63,23.34,0,3.93,.32,7.93,.64,11.86,.33,1.82-.14,3.6-.46,5.28-1.2s3.1-1.93,4.54-3.08c2.99-2.38,6.69-3.75,10.54-2.92,1.92,.41,6.39,2.82,4.08,5.26-.62,.65-1.63,1.14-2.3,.36-1.26-1.47-3.37,.66-2.12,2.12h0Z" fill="#1a1a1a"/></g><g><path d="M519.56,658.67c2.46,1.35,5.34-2.46,4.02-4.9s-4.71-3.01-7.5-2.44c-3.52,.72-6.75,2.83-8.79,5.75-1.35,1.94-2.2,4.2-3.75,5.99-1.61,1.86-3.87,3.06-6.12,4.07-12.49,5.61-27.51,7.34-36.74,17.35-3.73,4.04-6.05,10.47-2.69,14.66,2.59,3.23,7.34,3.69,11.57,3.83,33.76,1.12,67.78-2.22,100.83-9.91,2.1-.49,4.35-1.08,5.76-2.69,1.77-2.02,1.69-4.95,1.38-7.56-.95-7.93-3.12-15.7-6.4-22.97-7.4,.44-14.12,4.7-21.45,5.83-9.76,1.51-19.28-2.62-28.14-6.65"/><path d="M518.81,659.96c3.22,1.53,6.51-1.4,6.6-4.7,.11-3.75-3.96-5.58-7.16-5.63-3.9-.06-7.84,1.89-10.55,4.63-1.48,1.5-2.48,3.29-3.5,5.11-1.09,1.95-2.33,3.55-4.23,4.75-3.43,2.17-7.47,3.47-11.29,4.78-3.81,1.3-7.65,2.48-11.42,3.88-7.07,2.62-14.44,6.16-19.05,12.38-2.26,3.05-3.79,6.98-3.19,10.81s3.63,6.46,7.23,7.55c4.02,1.22,8.48,1.02,12.63,1.1,5.07,.1,10.14,.09,15.21,0,20.13-.41,40.23-2.39,60.06-5.88,4.93-.87,9.85-1.83,14.74-2.89,2.41-.52,4.84-1.01,7.22-1.65,1.88-.51,3.79-1.28,5.12-2.75,2.86-3.19,1.98-7.92,1.38-11.76-.74-4.78-1.93-9.48-3.54-14.04-.78-2.22-1.67-4.4-2.63-6.55-.2-.44-.82-.78-1.3-.74-8.28,.57-15.48,5.52-23.74,6.08-8.84,.6-17.24-3.13-25.1-6.7-1.74-.79-3.27,1.79-1.51,2.59,8.07,3.67,16.64,7.48,25.7,7.16,4.26-.15,8.28-1.38,12.26-2.8s8.08-3.03,12.38-3.33l-1.3-.74c1.77,3.94,3.19,8.03,4.28,12.21,1.03,3.95,2.02,8.18,2.09,12.29,.03,1.72-.24,3.58-1.64,4.74s-3.33,1.49-5.04,1.89c-4.41,1.02-8.83,1.96-13.27,2.82-17.69,3.44-35.61,5.65-53.61,6.59-9.01,.47-18.03,.63-27.05,.48-3.84-.07-7.92,.13-11.68-.77-3.19-.76-5.94-2.78-6.04-6.31-.2-7.02,6.64-12.3,12.17-15.32,6.17-3.37,13-5.24,19.61-7.51,3.39-1.16,6.81-2.39,10.02-4.01,1.69-.85,3.35-1.9,4.66-3.29s2.22-3.14,3.17-4.82c1.84-3.24,4.57-5.69,8.23-6.66,1.48-.39,3.1-.49,4.57,.01,1.11,.38,2.34,1.29,2.07,2.61-.16,.75-1.08,2.27-2.05,1.81-1.73-.82-3.26,1.76-1.51,2.59h0Z" fill="#1a1a1a"/></g><g><g><path d="M574.1,333.38c-7.21-6.93-14.87-13.13-22.86-18.52,5.29-1.73,11.04-4.23,15.33-8.51,2.27-2.26,6.49-4.98,7.03-8.56l.09,.64c-3,11.26-4.22,23.57,1.3,33.19" fill="#e6e6e6"/><path d="M574.65,332.83c-7.14-6.84-14.83-13.1-23.02-18.64l-.19,1.44c5.12-1.69,10.16-3.89,14.28-7.43,1.76-1.5,3.51-3.1,5.18-4.7,1.58-1.51,3.05-3.29,3.45-5.49l-1.55-.21c.16,1.22-.45,2.6-.72,3.79-.35,1.55-.66,3.11-.92,4.69-.48,2.96-.8,5.95-.82,8.95-.04,5.84,1.06,11.67,3.95,16.8,.5,.88,1.86,.09,1.36-.8-2.9-5.14-3.87-11-3.72-16.85,.08-3.01,.43-6.01,.97-8.97,.26-1.42,.56-2.84,.9-4.25,.27-1.12,.73-2.22,.58-3.37-.11-.79-1.37-1.18-1.55-.21-.39,2.13-1.89,3.73-3.43,5.16s-3.17,2.94-4.79,4.34c-3.91,3.35-8.74,5.43-13.59,7.03-.66,.22-.76,1.06-.19,1.44,8.09,5.46,15.66,11.64,22.7,18.39,.73,.7,1.85-.41,1.11-1.11h0Z"/></g><g><path d="M335.41,390.3c-7.21-3.62-15.89-4.65-23.85-2.82s-13.84,6.49-18.38,12.8l33.35-1.46c-8.33-.66-16.72-.54-25.02,.35-5.04,.54-10.32,1.48-14.17,4.54s-5.56,8.88-2.37,12.53c1.04,1.19,2.48,2.04,3.98,2.71,3.53,1.59,7.61,2.31,11.44,1.53,5.06-1.03,9.64-4.57,14.77-3.93,4.76,.59,8.03,4.52,11.54,7.55,7.28,6.28,17.61,9.41,27.5,8.33l-1.5-51.57-11.56-.2c-4.34-.07-8.72-.15-13,.51s-10.23,2.43-13.51,5.06" fill="#fff"/><path d="M335.78,389.65c-7.73-3.82-16.83-4.86-25.2-2.71-7.51,1.93-13.55,6.75-18.05,12.96-.33,.46,.11,1.15,.64,1.12,9.75-.43,19.51-.85,29.26-1.28,1.37-.06,2.73-.12,4.1-.18,.97-.04,.95-1.42,0-1.49-5.23-.4-10.47-.52-15.72-.32-4.87,.18-9.84,.49-14.63,1.45-3.89,.78-8.07,2.24-10.77,5.31-2.24,2.55-3.58,6.29-2.47,9.64,1.27,3.84,5.44,5.71,9.07,6.69,4.43,1.2,8.66,.67,12.88-1s8.23-3.65,12.57-1.93c3.88,1.54,6.59,5.07,9.79,7.6,7.54,5.96,17.43,8.65,26.96,7.66,.39-.04,.76-.31,.75-.75-.17-5.81-.34-11.62-.51-17.44l-.81-27.78c-.06-2.12-.12-4.24-.19-6.36-.01-.41-.33-.74-.75-.75-7.42-.13-15.02-.7-22.41,.05-5.56,.56-11.7,2.06-16.18,5.55-.76,.59,.31,1.64,1.06,1.06,4.5-3.5,11.01-4.83,16.57-5.23,6.95-.5,14.01-.04,20.98,.08l-.75-.75c.17,5.81,.34,11.62,.51,17.44l.81,27.78c.06,2.12,.12,4.24,.19,6.36l.75-.75c-8.23,.85-16.69-1.07-23.64-5.61-5.97-3.9-10.5-11.43-18.58-10.19-3.99,.61-7.48,2.89-11.39,3.78-4.34,.99-9.3,0-13.08-2.31-3.56-2.18-4.3-6.19-2.41-9.79s5.69-5.46,9.47-6.47c4.93-1.31,10.19-1.59,15.27-1.82,5.57-.25,11.14-.15,16.7,.28v-1.49c-9.75,.43-19.51,.85-29.26,1.28-1.37,.06-2.73,.12-4.1,.18l.64,1.12c4.27-5.88,10.04-10.44,17.16-12.27,7.97-2.05,16.69-1.08,24.05,2.56,.86,.42,1.61-.86,.75-1.29h0Z"/></g><g><path d="M608.05,331.57c26.82,6.15,51.04,16.5,71.77,33.46,3.46,2.83,6.37,6.27,8.55,10.17l.54,.96c-17.11,.92-24.25,9.29-41.36,10.21-1.91,.1-3.92,.23-5.54,1.23-1.91,1.18-2.88,3.32-3.74,5.34-13.73,32.16-32.24,55.91-45.11,88.4l-9.2-3.46c-17.36-2.17-29.61-17.75-46.15-23.26-4.01-1.33-8.26-2.07-12.02-3.95s-7.1-5.3-7.21-9.38c-.05-1.92,.61-3.79,.84-5.7,1.06-8.87-7.2-16.63-7.28-25.56l25.71-27.71c-10.07,10.8-20.14,21.6-30.2,32.39-6.74,7.23-13.75,14.66-22.9,18.76-12.41,5.56-26.79,4.22-40.44,3.26-18.42-1.29-36.91-1.67-55.37-1.13-12.85,.38-26.24,1.11-38.01-3.88-2.19-.93-4.34-2.08-5.9-3.83-1.73-1.93-2.6-4.43-3.23-6.92-.98-3.88-1.59-7.84-1.87-11.83-.51-7.21-.16-15.41,4.43-21.41,6.56-8.57,18.81-10.39,29.87-10.26l1.87-.24c15.68-.18,31.37-.36,47.05-.54,7.65-.09,15.72-.29,22.26-4.11,3.14-1.83,5.73-4.41,8.15-7.07,10.77-11.83,19.14-26.22,32.94-34.65,12.01-7.34,27.47-9.2,40.99-4.94,0,0,7.61-10.99,80.55,5.63"/><path d="M607.85,332.29c24.02,5.54,47.22,14.86,67,29.77,2.89,2.18,5.79,4.41,8.24,7.08,2.05,2.24,3.69,4.74,5.17,7.38l.65-1.13c-4.73,.28-9.36,1.15-13.87,2.6-4.04,1.29-7.94,2.97-11.94,4.37-4.54,1.59-9.21,2.74-14.02,3.14-2.25,.19-4.6,.1-6.7,1.05-1.9,.86-3.13,2.54-4.02,4.36-2.42,4.92-4.45,10.03-6.89,14.96s-4.96,9.69-7.57,14.46c-5.12,9.33-10.51,18.52-15.63,27.85-5.87,10.7-11.32,21.61-15.84,32.96l.92-.52c-3-1.13-6-2.52-9.07-3.41-1.09-.32-2.3-.38-3.42-.63-1.73-.39-3.43-.92-5.09-1.54-3.27-1.24-6.37-2.89-9.37-4.69-5.8-3.49-11.22-7.58-17.04-11.04-2.87-1.71-5.84-3.26-8.94-4.5-3.76-1.5-7.74-2.25-11.54-3.62s-7.71-3.68-9.12-7.62c-1.31-3.66,.84-7.61,.38-11.42-.8-6.57-5.17-11.98-6.74-18.33-.22-.89-.2-1.91-.46-2.77-.07-.24-.2-.59-.22-.53,.06-.17,.37-.4,.49-.53l2.35-2.54c2.73-2.95,5.46-5.89,8.2-8.84,4.87-5.25,9.75-10.51,14.62-15.76,.66-.71-.4-1.77-1.06-1.06-11.39,12.22-22.62,24.62-34.22,36.64-5.01,5.2-10.41,10.18-16.88,13.5-6.84,3.5-14.54,4.71-22.15,4.89-7.75,.19-15.49-.58-23.22-1.08-8.41-.54-16.83-.89-25.25-1.04s-16.85-.12-25.28,.11c-7.75,.21-15.54,.63-23.28-.07-3.92-.36-7.81-1.02-11.58-2.17-3.47-1.06-7.42-2.42-9.91-5.2s-3.23-6.93-3.9-10.49c-.73-3.87-1.12-7.82-1.16-11.76-.07-6.89,1.21-14.04,6.34-19.04,4.66-4.55,11.23-6.52,17.55-7.33,3.2-.41,6.37-.38,9.58-.51,2.78-.11,5.56-.28,8.36-.31,8.42-.1,16.84-.19,25.26-.29,7.93-.09,15.97,.16,23.88-.48,7.02-.57,13.5-2.48,18.82-7.25,5.22-4.67,9.48-10.46,13.83-15.92s8.5-10.61,13.46-15.27c10.65-10,24.55-15.3,39.2-14.11,3.57,.29,7.08,1,10.51,2.06,.34,.1,.66-.08,.85-.34-.21,.3,.05-.04,.16-.14,.1-.08,.51-.37,.92-.59,1.61-.87,3.64-1.34,5.56-1.69,4.07-.73,8.26-.83,12.38-.76,7.29,.11,14.56,.85,21.78,1.83,13.08,1.78,26.04,4.4,38.9,7.32,.94,.21,1.34-1.23,.4-1.45-19.44-4.42-39.42-8.6-59.42-9.17-4.55-.13-9.14-.06-13.65,.65-2.18,.34-4.41,.82-6.39,1.81-.7,.35-1.48,.78-1.94,1.43l.85-.34c-13.74-4.24-29.26-2.51-41.56,5.01s-20.25,19.57-29.24,30.34c-5.03,6.02-10.23,11.83-18.09,13.91s-16.05,1.49-23.95,1.58c-8.76,.1-17.53,.2-26.29,.3-6.76,.08-13.53,.1-20.27,.53-6.23,.39-12.68,1.57-18.11,4.79s-9.11,8.51-10.41,14.77c-1.47,7.09-.78,14.78,.66,21.81,.69,3.38,1.5,7.01,3.73,9.75,2.1,2.58,5.26,3.99,8.31,5.13,7.23,2.7,15.04,3.41,22.7,3.49,8.29,.09,16.58-.4,24.87-.48,17.49-.17,34.86,.84,52.3,1.89,7.61,.46,15.33,.62,22.85-.81s13.92-4.57,19.77-9.18,11.27-10.68,16.54-16.34c5.98-6.41,11.96-12.82,17.93-19.23,2.99-3.21,5.98-6.41,8.97-9.62l-1.06-1.06c-4.32,4.66-8.65,9.32-12.97,13.98-2.98,3.21-5.96,6.42-8.94,9.64l-2.83,3.05c-.34,.36-.93,.81-1.12,1.28-.41,1,.16,2.96,.38,3.97,.38,1.72,1,3.38,1.68,5,1.41,3.34,3.2,6.54,4.31,10,.51,1.58,.88,3.22,.93,4.89,.06,2.2-.65,4.25-.87,6.41-.34,3.37,1.22,6.4,3.66,8.64,2.79,2.57,6.37,3.87,9.96,4.91,3.9,1.13,7.74,2.18,11.42,3.93,6.43,3.07,12.21,7.31,18.14,11.21,6.42,4.23,13.25,8.22,20.91,9.61,3.79,.69,7.38,2.38,10.98,3.73,.41,.15,.78-.18,.92-.52,7.78-19.57,18.58-37.6,28.82-55.94,5.09-9.11,9.98-18.33,14.26-27.84,1.04-2.32,1.9-4.78,3.17-6.99,1.54-2.68,3.88-3.43,6.84-3.62,4.6-.3,9.08-.99,13.5-2.34s8.57-3.15,12.88-4.66c5.05-1.77,10.21-2.93,15.55-3.25,.57-.03,.94-.61,.65-1.13-5.82-10.39-16.2-17.22-26.16-23.29-10.69-6.51-22.16-11.67-34-15.69-6.94-2.35-14.01-4.3-21.14-5.95-.94-.22-1.34,1.23-.4,1.45h0Z" fill="#4d4d4d"/></g><path d="M570.12,327.76c2.21-3.64,6.78-5.95,11.51-6.57s9.58,.29,14,1.85c7.13,2.53,13.48,6.87,17.4,12.57,3.93,5.7,5.29,12.77,3.11,19.13-2.44,7.12-9.03,13.11-9.74,20.51-.15,1.6-.05,3.32-1.07,4.67-1.26,1.67-3.82,2.2-6.13,2.23-9.74,.16-18.09-5.66-25.18-11.4-10.87-8.81-21.52-18.85-24.84-31.36-.81-3.05-1.16-6.2-2.23-9.2s-2.99-5.93-6.13-7.53-7.64-1.47-10.02,.9l2.26-.98c.59-4.18,5.16-7.41,10.02-7.99,4.86-.57,9.79,1.11,13.69,3.66,3.9,2.55,6.94,5.93,9.93,9.27,3.06,3.41,6.12,6.83,9.18,10.24,5.55,6.19,12.31,12.95,21.41,13.25"/><path d="M568.66,327.77c2.21-3.87,8.24-6.51,12.96-7.17s9.58,.31,14,1.97c7.13,2.69,13.48,7.31,17.4,13.38,3.93,6.07,5.29,13.59,3.11,20.36-2.44,7.58-9.03,13.95-9.74,21.82-.15,1.7-.05,3.53-1.07,4.96-1.26,1.77-3.82,2.34-6.13,2.38-9.74,.17-18.09-6.02-25.18-12.13-10.87-9.37-21.52-20.06-24.84-33.37-.81-3.25-1.16-6.6-2.23-9.79s-2.99-6.31-6.13-8.01-7.64-1.57-10.02,.96l2.26-1.04c.59-4.45,5.16-7.89,10.02-8.5,4.86-.61,9.79,1.18,13.69,3.9s6.94,6.31,9.93,9.86c3.06,3.63,6.12,7.27,9.18,10.9,5.55,6.59,12.31,13.78,21.41,14.1" fill="none" stroke="#4d4d4d" stroke-miterlimit="10" stroke-width="2.07"/><g><path d="M575.23,288.54c.15,3.92-.37,7.68-2.32,11.06-.65,1.13-2.37,3.8-3.28,4.72-4.29,4.32-8.48,7.5-14.35,8.93-5.87,1.43-12,1.51-17.99,.78-5.34-.65-10.69-1.96-15.34-4.72s-8.55-7.09-10.03-12.35c-1.05-3.75-.78-9.38,.09-13.17,.39-1.72,.91-3.41,1.08-5.17,.34-3.56-.81-7.14-2.63-10.19l14.94-14.59,5.55,10.15,9.77-8.23,4.6,9,10.72-5.17,4.21,5.36,23.36-2.49-.66,6.46-8.96,5.64c1-2.09,3.09-3.54,5.35-4.05s4.65-.14,6.79,.73c1.38,.57,2.73,1.4,3.46,2.7,.42,.76,.61,1.63,.7,2.5,.43,3.79-.83,7.88-3.77,10.29s-7.64,2.71-10.52,.21" fill="#fff"/><path d="M574.48,288.54c.12,3.83-.4,7.62-2.39,10.96-1.52,2.56-3.26,4.67-5.49,6.66-2.61,2.33-5.55,4.34-8.85,5.55-3.85,1.41-8.06,1.92-12.15,2.01-7.84,.17-16.44-.99-23.29-5.05-6.08-3.61-10.11-9.52-10.32-16.66-.06-2.03,.06-4.09,.37-6.1s.98-4.06,1.32-6.13c.67-4.13-.51-8.16-2.58-11.72l-.12,.91c4.98-4.86,9.96-9.73,14.94-14.59l-1.18-.15c1.85,3.38,3.7,6.77,5.55,10.15,.25,.45,.82,.45,1.18,.15,3.26-2.74,6.51-5.49,9.77-8.23l-1.18-.15c1.53,3,3.06,6,4.6,9,.19,.38,.68,.44,1.03,.27,3.57-1.72,7.15-3.45,10.72-5.17l-.91-.12c1.33,1.69,2.56,3.58,4.04,5.14,.74,.78,2.13,.29,3.1,.18l16.19-1.72c1.59-.17,3.18-.34,4.78-.51l-.75-.75c-.22,2.15-.44,4.31-.66,6.46l.37-.65c-2.99,1.88-5.97,3.76-8.96,5.64l1.03,1.03c1.66-3.24,5.37-4.38,8.8-3.73,1.64,.31,3.47,.94,4.71,2.11,1.39,1.31,1.54,3.35,1.47,5.15-.14,3.11-1.51,6.39-4.19,8.14s-6.38,1.87-8.89-.2c-.74-.61-1.81,.45-1.06,1.06,4.98,4.1,12.13,1.3,14.55-4.23,1.19-2.72,1.7-6.51,.41-9.29s-5.13-4.15-8.08-4.39c-3.61-.29-7.3,1.32-9,4.62-.33,.63,.36,1.45,1.03,1.03,2.77-1.75,5.54-3.49,8.31-5.24,.37-.24,.82-.43,.99-.85,.19-.46,.13-1.17,.18-1.66,.17-1.67,.34-3.33,.51-5,.04-.37-.38-.79-.75-.75-3.89,.41-7.79,.83-11.68,1.24l-8.08,.86-2.61,.28c-.22,.02-.5,0-.72,.08-.64,.21,.43-.06,.25,.24,.11-.18-2.01-2.55-2.18-2.77l-2.03-2.58c-.21-.27-.63-.25-.91-.12-3.57,1.72-7.15,3.45-10.72,5.17l1.03,.27c-1.53-3-3.06-6-4.6-9-.24-.46-.83-.44-1.18-.15-3.26,2.74-6.51,5.49-9.77,8.23l1.18,.15c-1.85-3.38-3.7-6.77-5.55-10.15-.24-.43-.84-.48-1.18-.15-4.98,4.86-9.96,9.73-14.94,14.59-.24,.23-.28,.62-.12,.91,2.34,4.02,3.09,8.14,1.99,12.68-.87,3.6-1.44,7.18-1.28,10.91,.31,7.11,4.19,13.09,10.09,16.96,6.81,4.47,15.57,5.82,23.58,5.87,4.3,.02,8.74-.4,12.85-1.69,3.31-1.04,6.3-2.77,9-4.93,2.9-2.32,5.23-4.86,7.16-8.03,2.24-3.66,2.92-7.8,2.78-12.04-.03-.96-1.53-.97-1.5,0h0Z"/></g><path d="M581.87,274.04c-2.62,2.16-3.77,5.64-3.27,8.95,.11,.72,1.06,1.18,1.71,.97,.79-.26,1.09-.94,.97-1.71,.02,.12,.02,.19,0,.03,0-.1-.02-.19-.03-.29-.01-.15-.02-.31-.02-.46,0-.35,.02-.69,.05-1.03,.02-.21-.04,.23,0,.03,.02-.09,.03-.19,.05-.28,.03-.15,.06-.3,.1-.45,.08-.34,.19-.66,.31-.99,.05-.14,.04-.1-.01,.01,.03-.07,.06-.14,.09-.21,.07-.16,.15-.31,.23-.46,.15-.29,.33-.56,.51-.83,.02-.03,.21-.29,.1-.14-.1,.13,.05-.06,.07-.08,.11-.13,.22-.26,.34-.39,.24-.25,.49-.48,.76-.7,.56-.46,.52-1.49,0-1.97-.6-.55-1.37-.5-1.97,0h0Z"/><path d="M580.93,281.71s.07-.06,.1-.09c.15-.12-.1,.09-.12,.09,.05,0,.21-.14,.25-.17,.16-.1,.33-.19,.51-.26l-.33,.14c.33-.14,.68-.23,1.04-.28l-.37,.05c.38-.05,.76-.05,1.15,0l-.37-.05c.34,.05,.66,.14,.97,.27l-.33-.14c.15,.06,.29,.13,.42,.21,.63,.36,1.55,.17,1.9-.5s.18-1.52-.5-1.9c-2.01-1.15-4.56-.84-6.29,.67-.55,.48-.53,1.48,0,1.97,.59,.54,1.38,.51,1.97,0h0Z"/><path d="M568.02,266.78c-.05,.89,.39,1.72,.82,2.5,1.97,3.56,3.93,7.12,5.9,10.69-.18-1.5,.75-2.88,1.63-4.1,1.66-2.29,3.4-4.66,5.91-5.97,.2-.11,.42-.22,.54-.41,.1-.16,.11-.36,.12-.55,.04-.78,.08-1.55,.11-2.33"/><path d="M538.66,251.02c5.94-8.04,11.84-13.9,21.83-13.64s18.49,5.95,24,14.3c2.54,3.84,9.61,9.74,9.3,14.33l-.37-.07c-8.62,.05-17.3-.35-25.9,.13h-.49c-3.64-.01-7.28-.01-10.91-.01l-.12-.52c-.49-1.04-1.2-1.96-2.09-2.69v.38c-.2,1.52-.26,3.06-.18,4.59l-.39,.06-10.72-.26-.08-.35c-1.32-2.87-2.25-5.92-2.76-9.04v.4c-.77,2.78-1.48,5.57-2.12,8.38l-.21,.04c-3.22,0-6.45,0-9.67,0-.2,0-.42,0-.59-.12-.22-.15-.27-.45-.31-.71-.46-3.17-1.18-6.29-2.17-9.33-1.27,3.73-2.44,7.49-3.51,11.27l-.14,.6c-4.41,.57-11.22,2.52-15.38,3.99-.56-4.02-.73-8.08-.52-12.12,.15-2.84,1.49-6.81,2.6-9.47s3.07-5.1,5.8-6.42c2.32-1.12,7.28-2.9,9.9-2.96,2.71-.06,5.68,.69,8.23,1.53s5.63,3.63,6.7,5.94"/><path d="M524.59,273.46c-1.02-.6-2.25-.55-3.29-.02s-1.66,1.57-1.78,2.73l2.8-.76c-.61-1.41-1.21-2.83-1.82-4.24l-2.59,1.51c.67,1.28,1.13,2.64,1.41,4.19,.03,.19,.07,.38,.09,.57-.03-.21,.03,.28,.03,.33,.04,.38,.06,.76,.07,1.14,.02,.79-.03,1.58-.13,2.37s.76,1.53,1.5,1.5c.9-.04,1.39-.66,1.5-1.5,.45-3.47-.26-7.02-1.88-10.11-.36-.7-1.39-.96-2.05-.54-.75,.48-.87,1.28-.54,2.05,.61,1.41,1.21,2.83,1.82,4.24,.25,.58,1.12,.87,1.69,.69,.68-.22,1.03-.76,1.1-1.45-.03,.22-.03,.24,0,.08,.05-.13,.05-.14,0-.02-.18,.24,.25-.25,.03-.04s.4-.28-.03,.01c.09-.06,.2-.11,.28-.17-.22,.17-.09,.05,.05,0,.28-.11-.25-.03,.03-.01,.23,.01,.23,.06,.03-.02,.07,.02,.14,.04,.21,.06-.19-.08-.21-.09-.06,0,.68,.4,1.67,.18,2.05-.54s.18-1.63-.54-2.05h0Z"/><path d="M543.98,273.22c-1.12-.66-2.46-.61-3.6-.02s-1.82,1.72-1.95,2.99l3.06-.83c-.66-1.55-1.33-3.1-1.99-4.64l-2.83,1.66c.73,1.4,1.24,2.89,1.54,4.58,.04,.21,.07,.41,.1,.62-.03-.23,.03,.3,.04,.36,.04,.42,.06,.83,.07,1.25,.02,.87-.03,1.73-.14,2.59s.83,1.68,1.64,1.64c.98-.04,1.52-.73,1.64-1.64,.49-3.8-.29-7.68-2.06-11.06-.4-.76-1.52-1.05-2.25-.59-.82,.53-.95,1.4-.59,2.25,.66,1.55,1.33,3.1,1.99,4.64,.27,.63,1.23,.96,1.85,.75,.74-.24,1.13-.83,1.21-1.58-.04,.24-.04,.26,0,.08,.05-.14,.05-.15,0-.02-.2,.27,.27-.27,.04-.04s.44-.31-.03,.01c.1-.07,.22-.12,.31-.19-.24,.18-.1,.06,.06,0,.31-.13-.27-.03,.04-.01,.25,.01,.25,.06,.03-.02,.08,.02,.15,.04,.23,.07-.21-.09-.23-.09-.07,0,.74,.44,1.83,.19,2.25-.59s.2-1.78-.59-2.25h0Z"/><path d="M521.56,292.6c.58,.92,1.79,1.17,2.87,1.3,2.25,.27,4.58,.38,6.76-.24s4.22-2.1,5.03-4.23" fill="none" stroke="#000" stroke-linecap="round" stroke-miterlimit="10" stroke-width="3"/><path d="M512.58,256.55c.84-1.94,1.83-3.66,3.27-5.05,.72-.69,1.31-1.12,2.23-1.64,.98-.55,1.81-.89,2.86-1.24,.58-.19,.95-.78,.79-1.38-.16-.56-.8-.98-1.38-.79-2.21,.73-4.29,1.78-6,3.38s-2.82,3.52-3.7,5.58c-.24,.56-.17,1.21,.4,1.54,.47,.28,1.3,.16,1.54-.4h0Z" fill="#fff"/><path d="M526.41,326.17c3.89,3.25,7.36,6.95,10.16,11.2,3.24,4.92,5.58,10.36,7.52,15.91,.34,.96,1.87,.54,1.53-.42-1.99-5.67-4.37-11.25-7.68-16.29-2.87-4.36-6.41-8.18-10.4-11.52-.78-.65-1.9,.47-1.12,1.12h0Z" fill="#4d4d4d"/><path d="M568.45,328.79c11.99,2.91,23.83,11.87,28.04,23.7,.34,.95,1.87,.54,1.53-.42-4.4-12.36-16.6-21.76-29.15-24.81-.99-.24-1.41,1.29-.42,1.53h0Z" fill="#4d4d4d"/></g><rect x="206.29" y="675.23" width="119.99" height="9.7" rx="4.82" ry="4.82" transform="translate(241.15 -49.84) rotate(19.41)" fill="#fff" stroke="#000" stroke-miterlimit="10" stroke-width="1.02"/><rect x="454.52" y="695.37" width="125.41" height="9.7" rx="4.85" ry="4.85" transform="translate(-62.11 50.45) rotate(-5.27)" fill="#fff" stroke="#000" stroke-miterlimit="10" stroke-width="1.04"/></g></g><g id="Layer_4"><path d="M525.89,699.38c0-25.1,35.98-45.45,80.36-45.45s80.36,20.35,80.36,45.45" fill="none" stroke="#1a1a1a" stroke-miterlimit="10" stroke-width="4.78"/><ellipse cx="683.81" cy="702.57" rx="12.89" ry="12.38"/><ellipse cx="528.45" cy="700.28" rx="12.89" ry="12.38"/><rect x="596.83" y="623.18" width="19.91" height="6.87" rx=".52" ry=".52" transform="translate(-19.83 1233.4) rotate(-90)"/><rect x="598.36" y="574.28" width="16.85" height="48" rx="3.32" ry="3.32" fill="#fff" stroke="#1a1a1a" stroke-miterlimit="10" stroke-width="2"/><g><path d="M702.75,573.59c-3.59,3.06-10.45,3.56-15,3.53-56.49-.42-112.99-.83-169.48-1.25-4.22-.03-8.84-.21-11.99-3.01-2.82-2.51-3.74-6.71-2.95-10.4s3.07-6.92,5.77-9.56c7.19-7.03,17.36-10.37,27.39-11.13s20.07,.82,30.01,2.39l1.94-.99c2.05-23.86,12.66-46.03,23.1-67.59,4.58-9.45,9.15-18.9,13.73-28.34,8.57-17.7,17.31-35.65,30.35-50.37,7.35-8.3,16.32-15.63,27-18.59,5.6-1.56,11.47-1.86,17.27-2.15,21.78-1.09,44.56-2,64.32,7.21,6.18,2.88,12.13,6.93,15.46,12.88,3.57,6.38,3.7,14.07,3.47,21.39-.79,25.78-4.78,51.46-11.83,76.28-8.67,30.51-23.03,61-48.64,79.7" fill="#fff"/><path d="M701.69,572.53c-3.65,3-9.45,3.11-13.94,3.09-6.91-.03-13.82-.1-20.73-.15-14.08-.1-28.16-.21-42.24-.31-27.99-.21-55.98-.41-83.96-.62-7-.05-13.99-.1-20.99-.15-5.11-.04-11.97,.26-14.44-5.28-2.33-5.22,.56-10.79,4.19-14.56,3.98-4.14,9.12-7.03,14.53-8.84,12.45-4.14,25.75-2.64,38.45-.67,1.26,.2,3.28,.91,4.52,.48,.63-.22,1.27-.6,1.86-.93,1.13-.64,1.02-1.67,1.14-2.85,.16-1.6,.36-3.19,.6-4.78,.97-6.39,2.51-12.69,4.44-18.86,3.86-12.34,9.24-24.12,14.82-35.76,5.9-12.3,11.87-24.56,17.82-36.83,5.4-11.12,10.9-22.23,17.64-32.61,6.41-9.88,14.03-19.57,23.74-26.41,4.77-3.36,10.05-5.95,15.75-7.25,6.26-1.43,12.76-1.52,19.15-1.82,12.47-.59,25.11-.97,37.5,.89,6.16,.93,12.25,2.41,18.06,4.67,5.22,2.03,10.43,4.68,14.51,8.57,4.41,4.2,6.66,9.67,7.3,15.67s.22,12.61-.14,18.85c-1.52,26.26-6.26,52.53-14.5,77.53-6.96,21.13-17,41.89-32.64,58-3.77,3.89-7.84,7.47-12.21,10.68-1.54,1.13-.05,3.73,1.51,2.59,11.84-8.68,21.48-19.91,29.11-32.4,7.77-12.73,13.53-26.64,18.01-40.84,5.21-16.47,8.91-33.45,11.26-50.56,1.21-8.79,2.06-17.62,2.53-26.48,.43-8.12,1.18-16.87-1.45-24.71-2.42-7.21-7.94-12.42-14.45-16.06-6.95-3.88-14.72-6.32-22.51-7.78-16.25-3.06-33.03-2.19-49.44-1.22-8.18,.48-16.05,1.8-23.35,5.69-6.63,3.53-12.41,8.55-17.46,14.06-11.06,12.05-19.11,26.47-26.37,41.02-7.88,15.78-15.52,31.71-23.1,47.64s-14.2,31.11-17.53,47.84c-.8,4-1.38,8.05-1.74,12.12l.74-1.3-1.94,.99,1.16-.15c-17.7-2.8-37.63-5.63-53.52,4.86-6.52,4.3-13,11.42-11.61,19.83,.63,3.78,3.02,6.97,6.54,8.49,3.77,1.63,8.01,1.48,12.03,1.51,20.47,.15,40.94,.3,61.42,.45,20.47,.15,40.94,.3,61.42,.45,10.19,.08,20.39,.15,30.58,.23,4.93,.04,9.86,.14,14.79,.1,3.57-.03,7.31-.32,10.71-1.49,1.67-.57,3.19-1.36,4.56-2.48,1.49-1.23-.64-3.34-2.12-2.12h0Z" fill="#1a1a1a"/></g><path d="M581.24,569.32c4.62-2.31,7.41-6.83,9.5-11.37,2.73-5.91,5.14-11.99,7.69-17.98,5.32-12.51,10.64-25.02,15.96-37.53s10.62-24.34,14.99-36.87c2.13-6.1,3.97-12.29,5.37-18.6s2.41-12.51,3.52-18.79c1.25-7.01,2.62-14.03,4.72-20.84,1.76-5.68,3.93-12.38,9.45-15.48,1.68-.95,.17-3.54-1.51-2.59-4.71,2.65-7.32,7.52-9.17,12.41-2.25,5.94-3.75,12.16-5,18.38-2.52,12.55-4.16,25.23-7.9,37.5-3.86,12.65-9.16,24.79-14.33,36.95s-10.64,25.02-15.96,37.53c-2.98,7.02-5.97,14.04-8.95,21.05-2.19,5.15-4.59,10.98-9.88,13.63-1.73,.86-.21,3.45,1.51,2.59h0Z" fill="#1a1a1a"/><rect x="598.36" y="636.57" width="16.85" height="20.68" rx="2.18" ry="2.18" fill="#fff" stroke="#1a1a1a" stroke-miterlimit="10" stroke-width="2"/></g></svg>